<?xml version="1.0" encoding="UTF-8"?>
<!-- IBM Carbon Design System IbmDb2 icon, Apache-2.0. -->
<svg xmlns="http://www.w3.org/2000/svg" viewBox="0 0 32 32" fill="#0f62fe">
  <path d="M16 13c-3.4207 0-6 1.5049-6 3.5v8c0 1.9951 2.5793 3.5 6 3.5s6-1.5049 6-3.5v-8c0-1.9951-2.5793-3.5-6-3.5Zm0 2c2.4814 0 4 .9712 4 1.5S18.4814 18 16 18s-4-.9712-4-1.5 1.5186-1.5 4-1.5Zm0 11c-2.4814 0-4-.9712-4-1.5v-1.3525c1.0469.5342 2.4331.8525 4 .8525s2.9531-.3184 4-.8525V24.5c0 .5288-1.5186 1.5-4 1.5Zm0-4c-2.4814 0-4-.9712-4-1.5v-1.3525c1.0469.5342 2.4331.8525 4 .8525s2.9531-.3184 4-.8525V20.5c0 .5288-1.5186 1.5-4 1.5Z"/>
  <path d="M30 15.5c0 3.08-2.14 5.65-5.0099 6.3199V19.75C26.74 19.13 28 17.47 28 15.5c0-2.33-1.83-4.29-4.15-4.4801l-.81-.0599-.1-.8099C22.51 6.65 19.52 4 16 4c-3.53 0-6.52 2.65-6.95 6.15l-.1.8099-.81.0599C5.82 11.21 4 13.17 4 15.5c0 1.96 1.25 3.62 2.9901 4.24v2.08C4.13 21.14 2 18.57 2 15.5c0-3.1 2.22-5.75 5.2-6.36C8.06 5.0199 11.72 2 16 2c4.27 0 7.9301 3.0199 8.8 7.14 2.97.61 5.2 3.26 5.2 6.36Z"/>
</svg>
